M48
INCH
T01C0.0200
T02C0.0393
T03C0.0600
T04C0.0400
T05C0.0300
T06C0.0450
T07C0.1181
%
T01
X-050500Y+032750
X-046133Y+034173
X-014250Y+018500
X-012000Y+015500
T02
X-039500Y+046000
X-039500Y+045000
X-039500Y+044000
X-039500Y+043000
X-039500Y+042000
X-039500Y+041000
X-039500Y+040000
X-039500Y+039000
X-039500Y+037000
X-039500Y+036000
X-039500Y+035000
X-039500Y+034000
X-039500Y+033000
X-039500Y+032000
X-039500Y+031000
X-039500Y+030000
X-039500Y+028000
X-039500Y+027000
X-039500Y+026000
X-039500Y+025000
X-039500Y+024000
X-039500Y+023000
X-039500Y+022000
X-039500Y+021000
X-037500Y+019000
X-037500Y+020000
X-036500Y+019000
X-036500Y+020000
X-035500Y+019000
X-035500Y+020000
X-034500Y+019000
X-034500Y+020000
X-033500Y+019000
X-033500Y+020000
X-032500Y+019000
X-032500Y+020000
X-031500Y+019000
X-031500Y+020000
X-030500Y+019000
X-030500Y+020000
X-029500Y+019000
X-029500Y+020000
X-028500Y+019000
X-028500Y+020000
X-027500Y+019000
X-027500Y+020000
X-026500Y+019000
X-026500Y+020000
X-025500Y+019000
X-025500Y+020000
X-024500Y+019000
X-024500Y+020000
X-023500Y+019000
X-023500Y+020000
X-022500Y+019000
X-022500Y+020000
X-021500Y+019000
X-021500Y+020000
X-020500Y+019000
X-020500Y+020000
X-020500Y+023000
X-020500Y+024000
X-020500Y+025000
X-020500Y+026000
X-020500Y+027000
X-020500Y+028000
X-020500Y+029000
X-020500Y+030000
X-020500Y+032000
X-020500Y+033000
X-020500Y+034000
X-020500Y+035000
X-020500Y+036000
X-020500Y+037000
X-020500Y+038000
X-020500Y+039000
X-020500Y+041000
X-020500Y+042000
X-020500Y+043000
X-020500Y+044000
X-020500Y+045000
X-020500Y+046000
X-020500Y+047000
X-020500Y+048000
X-009000Y+041000
X-009000Y+042000
X-009000Y+043000
X-009000Y+044000
X-009000Y+045000
X-009000Y+046000
X-009000Y+047000
X-009000Y+048000
X-014000Y+048000
X-014000Y+047000
X-014000Y+046000
X-014000Y+045000
X-014000Y+044000
X-014000Y+043000
X-014000Y+042000
X-014000Y+041000
T03
X-058000Y+040000
X-058000Y+038000
X-058000Y+031500
X-058000Y+029500
X-058000Y+027500
X-058000Y+021500
X-058000Y+019500
X-058000Y+017500
X-023000Y+010750
X-025000Y+010750
X-027000Y+010750
X-014500Y+010750
X-016500Y+010750
X-018500Y+010750
X-045000Y+010750
X-047000Y+010750
X-039500Y+010750
X-041500Y+010750
X-034000Y+010750
X-036000Y+010750
X-009000Y+029000
X-009000Y+031000
X-009000Y+033000
X-009000Y+035000
X-009000Y+024500
X-009000Y+022500
X-009000Y+020500
X-009000Y+018500
X-050500Y+010750
X-052500Y+010750
X-054500Y+010750
T04
X-053500Y+046500
X-052500Y+046500
X-051500Y+046500
X-015000Y+038500
X-015000Y+037500
X-046500Y+015000
X-047500Y+015000
X-043750Y+028000
X-043750Y+027000
X-045000Y+020000
X-045000Y+019000
T05
X-055500Y+046500
X-057500Y+046500
X-009000Y+039500
X-009000Y+037500
X-015000Y+032000
X-015000Y+036000
X-050000Y+015000
X-054000Y+015000
X-050500Y+027500
X-054500Y+027500
X-046750Y+031500
X-046750Y+027500
X-048750Y+027500
X-048750Y+031500
X-050500Y+019500
X-054500Y+019500
X-049000Y+023500
X-049000Y+019500
X-047000Y+019500
X-047000Y+023500
X-042000Y+041000
X-042000Y+039000
X-042000Y+047250
X-042000Y+045250
T06
X-046500Y+044500
X-046500Y+041500
X-052000Y+038000
X-052000Y+035000
T07
X-008000Y+010000
X-058000Y+010000
X-058000Y+043500
M30
